<?xml version="1.0" encoding="UTF-8" standalone="no"?>
<!-- Created with Inkscape (http://www.inkscape.org/) -->

<svg
   xmlns:svg="http://www.w3.org/2000/svg"
   xmlns="http://www.w3.org/2000/svg"
   xmlns:xlink="http://www.w3.org/1999/xlink"
   version="1.1"
   width="525"
   height="420"
   id="svg2">
  <defs
     id="defs6" />
  <image
     xlink:href="file:///home/nammer/_WIN/__OUT/invader.jpg"
     x="0"
     y="0"
     width="525"
     height="420"
     id="image12"
     style="fill:none;stroke:none" />
  <path
     d="M 0,210 0,0 262.5,0 525,0 l 0,210 0,210 -262.5,0 L 0,420 0,210 z m 245,121.5 0,-17.5 -35.02361,0 -35.02362,0 0.27362,-17.25 0.27361,-17.25 87.25,-0.25549 87.25,-0.25549 0,17.50549 0,17.50549 -35,0 -35,0 0,17.5 0,17.5 34.97639,0 34.97638,0 0.27362,-17.25 0.27361,-17.25 17.25,-0.27361 17.25,-0.27362 0,-34.97638 0,-34.97639 17.5,0 17.5,0 0,35 0,35 17.5,0 17.5,0 0,-52.5 0,-52.5 -17.5,0 -17.5,0 0,-17.5 0,-17.5 -17.5,0 -17.5,0 0,-17.5 0,-17.5 -17.5,0 -17.5,0 0,-17.5 0,-17.5 17.5,0 17.5,0 0,-17.5 0,-17.5 -17.5,0 -17.5,0 0,17.5 0,17.5 -17.5,0 -17.5,0 0,17.5 0,17.5 -52.5,0 -52.5,0 0,-17.5 0,-17.5 -17.5,0 -17.5,0 0,-17.5 0,-17.5 -17.5,0 -17.5,0 0,17.476386 0,17.476384 17.25,0.27362 17.25,0.27361 0.27361,17.25 0.27362,17.25 -17.52362,0 -17.52361,0 0,17.5 0,17.5 -17.5,0 -17.5,0 0,17.5 0,17.5 -17.5,0 -17.5,0 0,52.5 0,52.5 17.5,0 17.5,0 0,-35 0,-35 17.5,0 17.5,0 0,35 0,35 17.5,0 17.5,0 0,17.5 0,17.5 35,0 35,0 0,-17.5 z M 175.22639,191.75 175.5,174.5 l 17.25,-0.27361 17.25,-0.27362 0,17.52362 0,17.52361 -17.52361,0 -17.52362,0 0.27362,-17.25 z m 140,0 0.27361,-17.25 17.25,-0.27361 17.25,-0.27362 0,17.52362 0,17.52361 -17.52361,0 -17.52362,0 0.27362,-17.25 z"
     id="path5067"
     style="fill:none;stroke:none" />
  <path
     d=""
     id="path3593"
     style="fill:#0000e6;fill-opacity:0" />
  <path
     d="M 0,210 C 0,140 0,70 0,0 c 175,0 350,0 525,0 0,140 0,280 0,420 -175,0 -350,0 -525,0 0,-70 0,-140 0,-210 z m 244.77361,121.75 c -1.11076,-7.45396 3.79692,-20.97632 -8.34131,-17.31126 -20.38175,-0.15477 -40.7635,-0.30955 -61.14525,-0.46433 0.0125,11.34121 -0.69149,22.71969 0.21736,34.03273 23.10535,1.77745 46.36695,0.7007 69.54282,0.99286 -0.0912,-5.75 -0.18241,-11.5 -0.27362,-17.25 z M 243.15789,346 c 0.74983,-5.5286 0.74983,5.5286 0,0 z m 106.62062,-11.92336 c -8.41634,-20.56513 7.86482,-21.91027 24.19394,-20.40966 12.04835,3.41873 11.28683,-5.77084 10.52755,-14.9582 0.39649,-18.50065 -1.0846,-37.29639 1.17581,-55.56351 10.31837,2.95797 25.89596,-1.73499 34.32419,2.19939 0,22.90603 0,45.81207 0,68.71811 11.26986,0.076 23.37457,-0.25205 33.95763,-1.02078 1.92805,-34.37752 0.28901,-69.04017 0.54237,-103.54199 -12.35434,0.12804 -25.20334,-1.5047 -37.11606,1.24411 5.1168,-6.72408 1.73641,-21.76593 2.61606,-32.11506 -0.26723,-10.65334 -20.87372,-1.1805 -28.29626,-4.21756 -12.86814,4.55402 -5.39469,-18.65308 -7.20374,-27.50217 3.60069,-11.79483 -10.49863,-6.3934 -17.47325,-7.91391 C 343.66608,145.57849 350.39263,125.98611 350,110.24275 347.08426,99.404888 361.21702,105.61553 367.52361,104 c 6.44366,-1.61285 21.03094,4.78976 17.41699,-6.722435 C 384.79373,88.018377 384.64686,78.759188 384.5,69.5 373,69.317591 361.5,69.135181 350,68.952772 c 0,11.682409 0,23.364819 0,35.047228 -11.66667,0 -23.33333,0 -35,0 0,11.65503 0,23.31007 0,34.9651 -35.00014,0.1783 -70.00029,0.3566 -105.00043,0.5349 1.4e-4,-11.83333 2.8e-4,-23.66667 4.3e-4,-35.5 -10.939,1.74106 -27.64913,-4.220244 -34.59224,3.67228 -2.67996,9.08316 3.89477,26.47994 -2.59707,31.32808 -11.00341,-1.1e-4 -22.00682,-2.4e-4 -33.01023,-3.6e-4 0.13761,11.9917 0.70295,23.98653 0.35854,35.9776 C 121.32196,172.36916 95.543819,169.39355 105,196.75618 107.39443,207.26585 103.50449,211.49116 92.898095,209 75.167631,207.19193 65.666352,208.50212 70.13789,229.43598 69.89839,257.63899 70.037358,285.84349 70,314.04723 81.5,313.86481 93,313.6824 104.5,313.5 c 0.46487,-23.42749 -1.14459,-47.15072 1.17581,-70.35473 10.31837,2.95797 25.89596,-1.73499 34.32419,2.19939 0,22.91761 0,45.83522 0,68.75283 11.5,-0.19916 23,-0.39832 34.5,-0.59749 2.68516,-11.13821 -6.53242,-34.90494 9.12814,-34.22444 55.73113,-0.0509 111.5784,-1.77338 167.24327,0.37978 -2.75326,16.0924 6.47498,42.57045 -19.81269,34.4156 -17.01973,0.0368 -34.03916,-0.11072 -51.05872,-0.17049 0,11.70849 0,23.41698 0,35.12547 23.16667,-0.17531 46.33333,-0.35061 69.5,-0.52592 0.0928,-4.80779 0.18567,-9.61557 0.27851,-14.42336 z m -4.96601,-14.75975 c 5.59053,-0.8633 -1.71937,1.71436 0,0 z m -203,-7 c 5.59053,-0.8633 -1.71937,1.71436 0,0 z m 280,0 c 5.59053,-0.8633 -1.71937,1.71436 0,0 z M 316,212.09844 c 2.11771,-4.5576 3.15175,0.52042 0,0 z M 208.5,211 c 3.07003,-3.33131 -0.0437,3.36259 0,0 z m 104,-1 c -0.0839,-3.83135 4.57326,4.03538 0,0 z m 17.25,-0.77673 c -9.38906,0.71747 -18.27646,0.93909 -14.82617,-11.03372 2.96055,-9.93014 -6.79431,-30.18622 4.02725,-24.35344 16.07644,0.85419 38.99248,-6.80472 31.02332,17.06894 3.12269,22.5752 1.04116,19.28268 -20.2244,18.31822 z M 175.22639,191.75 c 1.11066,-7.46217 -3.79652,-20.94217 8.34053,-17.37795 8.81103,-0.13976 17.62205,-0.27952 26.43308,-0.41928 0,11.68241 0,23.36482 0,35.04723 -11.68241,0 -23.36482,0 -35.04723,0 0.0912,-5.75 0.18241,-11.5 0.27362,-17.25 z M 416.8125,175.31689 c 5.59053,-0.8633 -1.71937,1.71436 0,0 z m -70,-4 c 5.59053,-0.8633 -1.71937,1.71436 0,0 z M 175,87.084111 C 173.37779,80.482043 179.78922,65.901899 168.27688,69.12157 158.85125,69.056164 149.42563,68.99076 140,68.925355 c 0,11.675805 0,23.35161 0,35.027415 11.39115,-1.78138 31.45548,5.57774 34.92656,-4.281591 0.0569,-4.195422 0.072,-8.391302 0.0734,-12.587068 z"
     id="path2818"
     style="opacity:0;fill:#000000;fill-opacity:0" />
</svg>
